<?xml version="1.0" encoding="iso-8859-1"?>
<!-- Generator: Adobe Illustrator 19.0.0, SVG Export Plug-In . SVG Version: 6.00 Build 0)  -->
<svg version="1.1" id="Capa_1" xmlns="http://www.w3.org/2000/svg" xmlns:xlink="http://www.w3.org/1999/xlink" x="0px" y="0px"
	 viewBox="0 0 345.172 345.172" style="enable-background:new 0 0 345.172 345.172;" xml:space="preserve">
<path style="fill:#77BC4A;" d="M13.477,11.323c59.6,50.8,59.2,138,92,205.6c48.4,94.4,140,84,190,34.8
	c31.6-31.2,46.8-77.6,24.4-123.6C283.077,52.523,153.477,1.323,13.477,11.323z"/>
<path style="fill:#023600;" d="M341.077,331.723c-9.2-27.6-20.4-53.6-33.6-78.4c0.4-0.4,0.8-1.2,1.6-1.6c30-33.6,42.8-81.2,20-128
	c-20-40.4-64-74-121.6-96c-55.6-21.2-124-31.6-194.8-26.4c-5.6,0.4-9.6,5.2-9.2,10.4c0.4,2.8,1.6,5.2,3.6,7.2
	c35.6,30.8,48.8,77.2,62,123.2c8,27.2,15.6,54.4,27.6,79.2c0,0.4,0.4,0.4,0.4,0.8c30,58,76,78.8,119.6,76c17.6-1.2,35.2-6,50.8-14
	c8.8-4.4,17.6-10,25.2-16.4c11.6,22.4,21.2,46,29.6,70.8c1.6,5.2,7.2,8,12.4,6C340.277,342.523,343.077,336.923,341.077,331.723z
	 M311.477,132.523c18,36.8,8.8,74.8-14,102.4c-6.4-11.2-13.2-22-20.8-32.4l-6.8-118.4
	C288.677,98.523,302.677,114.923,311.477,132.523z M88.277,136.923c-0.4-1.6-0.8-3.2-1.2-4.8l103.6,5.2c20.8,17.6,39.6,36.8,56.4,58
	l-142.8-6.8C98.277,171.723,93.077,154.523,88.277,136.923z M249.477,70.123l6,104.8c-15.6-18.8-32.8-36-51.6-52l-4.8-77.2
	c0.4,0,0.8,0.4,1.6,0.4C218.677,53.323,235.077,61.323,249.477,70.123z M179.077,38.923l4,67.6c-14.8-11.2-30.4-21.2-47.2-30.8
	c-4.8-2.8-10.8-0.8-13.2,3.6c-2.8,4.8-0.8,10.8,3.6,13.2c12.8,7.2,25.2,15.2,37.2,23.6l-82-4c-10-33.6-22-65.6-44.8-92.4
	C87.477,18.523,136.277,25.723,179.077,38.923z M258.677,266.523c-13.6,6.8-28,11.2-43.2,12c-36.8,2.4-75.2-15.6-100.8-65.6v-0.4
	c-0.8-1.2-1.2-2.8-2-4l149.2,7.2c7.6,10.8,14.8,22.4,21.6,34C275.877,256.123,267.477,261.723,258.677,266.523z"/>
<g>
</g>
<g>
</g>
<g>
</g>
<g>
</g>
<g>
</g>
<g>
</g>
<g>
</g>
<g>
</g>
<g>
</g>
<g>
</g>
<g>
</g>
<g>
</g>
<g>
</g>
<g>
</g>
<g>
</g>
</svg>
